<svg xmlns="http://www.w3.org/2000/svg" viewBox="0 0 90 90"><path d="M30.9 50.5c.3 0 .5-.1.7-.2.9-.4 1.3-1.5.9-2.4-.3-.6-.9-1.1-1.6-1.1-.3 0-.5.1-.7.2-.4.2-.8.6-.9 1-.2.4-.2.9 0 1.4.2.7.9 1.1 1.6 1.1zm-.3-1.9l.2-.2h.1c.1 0 .2.1.3.2.1.2 0 .3-.2.4-.2.1-.3 0-.4-.2v-.2zm6.5-.8c.3 0 .5-.1.7-.2.4-.2.8-.6.9-1 .2-.4.2-.9 0-1.4-.3-.6-.9-1.1-1.6-1.1-.3 0-.5.1-.7.2-.4.2-.8.6-.9 1-.2.4-.2.9 0 1.4.2.7.9 1.1 1.6 1.1zm-.3-1.9l.2-.2h.1c.1 0 .2.1.3.2v.2l-.2.2c-.2.1-.3 0-.4-.2-.1-.1 0-.2 0-.2zm6.5-.9c.3 0 .5-.1.7-.2.9-.4 1.3-1.5.9-2.4-.3-.6-.9-1.1-1.6-1.1-.3 0-.5.1-.7.2-.4.2-.8.6-.9 1-.2.4-.2.9 0 1.4.2.7.8 1.1 1.6 1.1zm-.3-1.9l.2-.2h.1c.1 0 .2.1.3.2.1.2 0 .3-.2.4-.2.1-.3 0-.4-.2-.1-.1-.1-.2 0-.2zm6.4-4.5c-.3 0-.5.1-.7.2-.9.4-1.3 1.5-.9 2.4.3.6.9 1.1 1.6 1.1.3 0 .5-.1.7-.2.9-.4 1.3-1.5.9-2.4-.2-.6-.9-1.1-1.6-1.1zm.2 2.1c-.2.1-.3 0-.4-.2-.1-.2 0-.3.2-.4h.1c.1 0 .2.1.3.2 0 .2-.1.4-.2.4zm6-1.2c.3 0 .5-.1.7-.2.4-.2.8-.6.9-1 .2-.4.2-.9 0-1.4-.3-.6-.9-1.1-1.6-1.1-.3 0-.5.1-.7.2-.4.2-.8.6-.9 1-.2.4-.2.9 0 1.4.3.7.9 1.1 1.6 1.1zm-.3-1.9l.2-.2h.1c.1 0 .2.1.3.2v.2l-.2.2c-.2.1-.3 0-.4-.2v-.2zm6.5-.9c.3 0 .5-.1.7-.2.9-.4 1.3-1.5.9-2.4-.3-.6-.9-1.1-1.6-1.1-.3 0-.5.1-.7.2-.4.2-.8.6-.9 1-.2.4-.2.9 0 1.4.2.7.9 1.1 1.6 1.1zm-.3-1.9l.2-.2h.1c.1 0 .2.1.3.2.1.2 0 .3-.2.4-.2.1-.3 0-.4-.2v-.2zm6.5-.9c.3 0 .5-.1.7-.2.9-.4 1.3-1.5.9-2.4-.3-.6-.9-1.1-1.6-1.1-.3 0-.5.1-.7.2-.4.2-.8.6-.9 1-.2.4-.2.9 0 1.4.2.7.9 1.1 1.6 1.1zm-.2-2h.1c.1 0 .2.1.3.2.1.2 0 .3-.2.4-.2.1-.3 0-.4-.2 0-.2.1-.4.2-.4z"/><path d="M87.1 24.5c-1.2-2.8-7.8-1.7-9.7-.9L57 32.7l-6.8-2 6.2-2.8-.6-1.4-7.8 3.6-12.6-3.7-5.5 2.4L43 39l-15.6 7L16 40.1l-6.8 3 3.8 3.8-1.4.7.6 1.3 1.9-.9 2.7 2.7-7.1 3.2.6 1.4 62.3-27.9 4.5 1.7 5.2-2.4-.6-1.4-4.7 2.1-2.5-1L78 25c.8-.4 2.7-.8 4.5-.8 2.1 0 3 .5 3.2.9.6 1.3-3 4.9-5 5.8L64 38.4l.2-.9-.7-.2-.7-.2-.2.6-.4 1.5-.4 1.8-6.3 24-5.4 2.4-1.5-20.5-.1-1.6-.1-1-.7.1-.7.1V46l-10 4.5c-1.6.7-3.3 1.1-5.1 1.2l-12.6.3v1.5l12.7-.4c1.9-.1 3.8-.5 5.6-1.3l9.5-4.2 1.6 22 8-3.6 6.8-25.8 17.7-7.9c2-.8 7.1-5.1 5.9-7.8zm-54.3 4.6l2.7-1.2L46 31l-1 .4.6 1.4 2.5-1.2 6.8 2-8.3 3.7-10.5-8.2-.9 1.2L45 38l-.5.2-11.7-9.1zM15.5 47.4l2.8-1.3-.6-1.3-3.3 1.5-2.6-2.7 4.2-1.9 9.7 5-7.5 3.3-2.7-2.6z"/><path d="M50.316 64.643L48.91 43.29l1.496-.099 1.407 21.353zm14.647-19.405l-.622-1.365 14.555-6.643.623 1.365zM18.927 64.335l24.106-10.761.612 1.37-24.106 10.76zm18.429-44.15l.612 1.37-23.733 10.618-.612-1.37zM26.829 29.87l.612 1.37L3.708 41.858l-.612-1.369zm8.287 39.346l-.612-1.37 12.231-5.472.613 1.37zM2.288 65.908l21.268-9.515.613 1.369-21.268 9.516zM63.59 51.366l-.596-1.377 8.35-3.62.596 1.377z"/></svg>